# xmcd
#
# Track frame offsets:
# 150
# 28021
# 48547
# 90826
# 139421
# 176902
#
# Disc length: 3069 seconds
#
# Revision: 1
# Processed by: cddbd v1.5.1PL2 Copyright (c) Steve Scherf et al.
# Submitted via: Axialis_AX_CDPlayer 2.6
#
DISCID=4d0bfb06
DTITLE=Enrico Pieranunzi - Live In Paris [CD2 of 2)
DYEAR=2005
DGENRE=Jazz
TTITLE0=Someday my prince will come
TTITLE1=What is this thing called love
TTITLE2=Jitterbug waltz
TTITLE3=One lone star
TTITLE4=Un piccola chiave dorata
TTITLE5=Autumn leaves
EXTD=YEAR: 2005
EXTT0=
EXTT1=
EXTT2=
EXTT3=
EXTT4=
EXTT5=
PLAYORDER=
